<svg width="131" height="26" viewBox="0 0 131 26" fill="none" xmlns="http://www.w3.org/2000/svg">
<path d="M0 24.9688V0.226076H7.63516L9.74437 15.3104L11.8377 0.226076H19.5428V24.9688H14.9554V7.14337L12.0795 24.9688H7.57789L4.53019 7.14337V24.9688H0ZM27.4452 25.1917C25.441 25.1917 23.9108 24.5952 22.8514 23.3988C21.792 22.2025 21.2639 20.4787 21.2639 18.2179V6.46828C21.2639 4.34882 21.7888 2.74431 22.8387 1.64533C23.8885 0.54949 25.4251 0 27.4452 0C29.4653 0 31.0051 0.54949 32.0518 1.64533C33.1016 2.74117 33.6265 4.34882 33.6265 6.46828V18.2211C33.6265 20.4787 33.0984 22.2057 32.039 23.402C30.9797 24.5983 29.4494 25.1949 27.4452 25.1949V25.1917ZM27.4866 20.6388C28.2469 20.6388 28.6255 19.9135 28.6255 18.4597V6.3835C28.6255 5.1652 28.2564 4.55605 27.5152 4.55605C26.6785 4.55605 26.2618 5.1809 26.2618 6.42746V18.488C26.2618 19.2573 26.3572 19.8067 26.5481 20.1396C26.739 20.4724 27.0507 20.6388 27.4866 20.6388ZM37.864 24.9688L34.7718 0.210376H39.5438L41.3826 17.053L43.0209 0.210376H47.7929L44.7007 24.9688H37.864ZM48.9382 24.9688V0.226076H58.9657V5.00507H54.0378V9.82801H58.7653V14.4814H54.0378V20.1459H59.2934V24.9688H48.9382ZM60.6868 24.9688V0.226076H68.3219L70.4312 15.3104L72.5213 0.226076H80.2264V24.9688H75.639V7.14337L72.7631 24.9688H68.2615L65.2138 7.14337V24.9688H60.6836H60.6868ZM0 24.9688V0.226076V24.9688ZM81.9475 24.9688V0.226076H91.975V5.00507H87.0472V9.82801H91.7746V14.4814H87.0472V20.1459H92.3027V24.9688H81.9475ZM93.6961 24.9688V0.226076H98.853L101.159 12.0762V0.226076H106.001V24.9688H101.102L98.5953 12.5974V24.9688H93.6961ZM110.124 24.9688V4.97681H107.147V0.226076H118.116V4.97681H115.138V24.9688H110.124ZM125.156 25.1917C122.869 25.1917 121.218 24.6297 120.206 23.5056C119.194 22.3815 118.689 20.5917 118.689 18.1363V15.7185H123.645V18.8114C123.645 19.3829 123.734 19.8319 123.909 20.1553C124.084 20.4787 124.389 20.6388 124.828 20.6388C125.267 20.6388 125.598 20.507 125.776 20.2463C125.951 19.9826 126.041 19.5524 126.041 18.9527C126.041 18.1928 125.964 17.5585 125.811 17.0467C125.659 16.5349 125.395 16.0482 125.019 15.5835C124.644 15.1188 124.125 14.5787 123.46 13.9602L121.211 11.8501C119.532 10.2864 118.689 8.49354 118.689 6.48084C118.689 4.46814 119.185 2.76629 120.177 1.65789C121.17 0.55263 122.605 0 124.485 0C126.782 0 128.414 0.606009 129.378 1.81489C130.342 3.02376 130.822 4.86063 130.822 7.32548H125.722V5.62363C125.722 5.28766 125.624 5.02391 125.43 4.83551C125.236 4.64711 124.972 4.55291 124.641 4.55291C124.243 4.55291 123.95 4.66281 123.766 4.88261C123.581 5.1024 123.489 5.385 123.489 5.73353C123.489 6.08207 123.585 6.45572 123.775 6.85763C123.966 7.25954 124.342 7.72425 124.902 8.24862L127.793 10.9898C128.372 11.533 128.904 12.1076 129.39 12.7105C129.877 13.3133 130.265 14.0167 130.558 14.8205C130.851 15.6212 131 16.5977 131 17.7532C131 20.0768 130.564 21.8979 129.696 23.2136C128.827 24.5292 127.316 25.1886 125.159 25.1886L125.156 25.1917Z" fill="#040926"/>
</svg>
